HIERARCHY
ROOT root
{
	OFFSET 0.000000 0.000000 0.000000
	CHANNELS 6 Xposition Yposition Zposition Zrotation Yrotation Xrotation
	JOINT lhip
	{
		OFFSET 0.058581 -0.082280 -0.017664
		CHANNELS 3 Zrotation Yrotation Xrotation
		JOINT lknee
		{
			OFFSET 0.043451 -0.386469 0.008037
			CHANNELS 3 Zrotation Yrotation Xrotation
			JOINT lankle
			{
				OFFSET -0.014790 -0.426874 -0.037428
				CHANNELS 3 Zrotation Yrotation Xrotation
				JOINT ltoe
				{
					OFFSET 0.041054 -0.060286 0.122042
					CHANNELS 3 Zrotation Yrotation Xrotation
					End Site
					{
						OFFSET 0.000000 0.000000 0.000000
					}
				}
			}
		}
	}
	JOINT rhip
	{
		OFFSET -0.060310 -0.090513 -0.013543
		CHANNELS 3 Zrotation Yrotation Xrotation
		JOINT rknee
		{
			OFFSET -0.043257 -0.383688 -0.004843
			CHANNELS 3 Zrotation Yrotation Xrotation
			JOINT rankle
			{
				OFFSET 0.019056 -0.420046 -0.034562
				CHANNELS 3 Zrotation Yrotation Xrotation
				JOINT rtoe
				{
					OFFSET -0.034840 -0.062106 0.130323
					CHANNELS 3 Zrotation Yrotation Xrotation
					End Site
					{
						OFFSET 0.000000 0.000000 0.000000
					}
				}
			}
		}
	}
	JOINT lowerback
	{
		OFFSET 0.004439 0.124404 -0.038385
		CHANNELS 3 Zrotation Yrotation Xrotation
		JOINT upperback
		{
			OFFSET 0.004488 0.137956 0.026820
			CHANNELS 3 Zrotation Yrotation Xrotation
			JOINT chest
			{
				OFFSET -0.002265 0.056032 0.002855
				CHANNELS 3 Zrotation Yrotation Xrotation
				JOINT lowerneck
				{
					OFFSET -0.013390 0.211636 -0.033468
					CHANNELS 3 Zrotation Yrotation Xrotation
					JOINT upperneck
					{
						OFFSET 0.010113 0.088937 0.050410
						CHANNELS 3 Zrotation Yrotation Xrotation
						End Site
						{
							OFFSET 0.000000 0.000000 0.000000
						}
					}
				}
				JOINT lclavicle
				{
					OFFSET 0.071702 0.114000 -0.018898
					CHANNELS 3 Zrotation Yrotation Xrotation
					JOINT lshoulder
					{
						OFFSET 0.122921 0.045205 -0.019046
						CHANNELS 3 Zrotation Yrotation Xrotation
						JOINT lelbow
						{
							OFFSET 0.255332 -0.015649 -0.022946
							CHANNELS 3 Zrotation Yrotation Xrotation
							JOINT lwrist
							{
								OFFSET 0.265709 0.012698 -0.007375
								CHANNELS 3 Zrotation Yrotation Xrotation
								End Site
								{
									OFFSET 0.000000 0.000000 0.000000
								}
							}
						}
					}
				}
				JOINT rclavicle
				{
					OFFSET -0.082954 0.112472 -0.023707
					CHANNELS 3 Zrotation Yrotation Xrotation
					JOINT rshoulder
					{
						OFFSET -0.113228 0.046853 -0.008472
						CHANNELS 3 Zrotation Yrotation Xrotation
						JOINT relbow
						{
							OFFSET -0.260127 -0.014369 -0.031269
							CHANNELS 3 Zrotation Yrotation Xrotation
							JOINT rwrist
							{
								OFFSET -0.269108 0.006794 -0.006027
								CHANNELS 3 Zrotation Yrotation Xrotation
								End Site
								{
									OFFSET 0.000000 0.000000 0.000000
								}
							}
						}
					}
				}
			}
		}
	}
}
MOTION
Frames: 8
Frame Time: 0.033333
-0.202679 0.992376 0.915388 53.198293 5.531633 85.669961 4.065508 1.457268 -36.605653 -7.428726 -4.814135 56.034386 5.167398 4.874956 -28.928560 0.000000 -0.000000 0.000000 -8.943422 -18.894293 -23.831981 -6.640297 -6.141348 84.308486 10.971929 -9.537160 -7.918320 0.000000 -0.000000 0.000000 1.820545 1.976261 70.524212 -8.646719 -2.090952 -5.634749 -1.905896 0.867207 -4.070068 -17.691547 10.601863 -20.323852 -3.946477 15.254384 12.477696 -28.533095 -20.672687 -5.982909 -19.190007 -5.613276 10.484690 13.413965 -71.955758 -10.418160 13.417075 -12.100250 -14.971762 29.783315 28.883678 -2.193061 31.870949 10.297734 12.867609 -28.242919 55.237901 -47.088867 4.114102 15.714562 -8.458091 
-0.195945 0.983860 0.914994 55.296639 7.237226 87.249701 5.570280 0.999884 -38.228258 -7.607515 -5.408442 57.025740 5.550085 4.400677 -29.577990 0.000000 -0.000000 0.000000 -6.449571 -17.335785 -29.154817 -6.517671 -6.655838 83.536904 10.533248 -8.585107 -10.166627 0.000000 -0.000000 0.000000 0.505584 0.543702 69.963702 -7.895730 -0.026382 -8.954798 -1.890831 1.554180 -2.964914 -17.231820 10.891313 -19.489212 -4.184211 15.116961 12.516470 -28.335375 -19.295627 -5.097964 -20.928087 -6.949357 9.803504 14.205934 -72.021995 -9.566170 12.415442 -11.389888 -16.770782 29.202486 27.590565 -0.408300 32.081887 12.269081 11.766168 -28.345112 56.646048 -44.444158 3.222879 15.711615 -11.672180 
-0.189476 0.973382 0.919699 56.801750 7.160560 87.270675 5.344877 1.324552 -37.231649 -8.482965 -6.572075 56.779446 5.435910 4.665120 -30.083427 0.000000 -0.000000 0.000000 -5.870343 -15.928376 -32.283837 -6.036887 -6.490032 80.026373 10.348856 -8.191649 -11.716826 0.000000 -0.000000 0.000000 1.360926 1.547153 70.252624 -7.763766 -1.078823 -8.120907 -1.306642 0.733444 -3.262011 -17.501249 10.597972 -19.413910 -3.992938 14.752896 11.611875 -28.946780 -19.420697 -4.848987 -20.686347 -6.866342 9.672485 17.400001 -72.509164 -13.606666 12.196272 -10.921866 -16.485373 29.294547 28.159657 -0.331015 31.592062 12.751566 11.621829 -29.619025 57.550950 -45.254816 3.769779 14.941197 -11.600560 
-0.184410 0.961401 0.920893 58.367734 7.642860 87.860926 6.033684 1.718252 -37.313668 -8.986538 -7.295288 57.154695 5.300019 3.843631 -30.914733 0.000000 -0.000000 0.000000 -4.862967 -14.031677 -35.520234 -5.295591 -6.551142 75.301774 10.700072 -6.818787 -13.094755 0.000000 -0.000000 0.000000 0.695749 1.654579 69.883856 -7.387772 -0.248906 -8.508258 -0.960081 0.591209 -3.191858 -17.178245 11.003065 -19.924667 -3.938011 13.979126 12.274371 -28.543634 -18.547340 -4.936430 -21.969515 -7.795464 9.678900 18.759771 -72.524078 -14.709259 11.230029 -11.017734 -16.659457 29.173286 27.509796 -0.201078 32.093680 13.989291 11.697476 -31.029173 58.011689 -45.384263 4.642048 14.603465 -11.939861 
-0.180733 0.951389 0.918050 59.576615 7.059747 89.066807 6.139974 1.366620 -38.375062 -9.017700 -6.838192 57.453844 4.973641 2.942135 -31.425979 0.000000 -0.000000 0.000000 -5.515306 -11.177006 -39.543232 -3.323950 -6.205019 69.970453 12.004223 -3.687924 -13.421581 0.000000 -0.000000 0.000000 -1.624226 2.047897 67.426883 -6.960141 1.033268 -7.232593 -0.528062 0.927050 -3.252488 -15.912836 12.174915 -20.514791 -4.663344 11.961323 12.932866 -27.639145 -17.899842 -5.912781 -23.757237 -8.959817 10.723188 20.440811 -71.952500 -15.726673 9.493736 -11.716981 -16.411405 29.049702 26.574269 -0.484119 32.666310 15.633975 12.548394 -32.771687 57.678057 -46.247924 4.842889 15.196951 -12.734449 
-0.181626 0.939939 0.907870 60.407459 7.058451 93.471008 8.701677 0.663055 -43.736381 -10.121512 -4.196588 58.468549 5.396677 2.660021 -31.423325 0.000000 -0.000000 0.000000 -6.525990 -6.401101 -47.117144 0.820032 -5.471107 64.006040 11.959525 -1.132122 -13.488515 0.000000 -0.000000 0.000000 -2.634778 2.686931 59.593543 -5.990422 2.264642 -4.468636 -0.671804 0.676095 -3.133651 -15.161867 13.106948 -19.260415 -5.148229 10.237431 11.585125 -27.867458 -16.772177 -4.676177 -24.247318 -10.379267 10.991351 22.245470 -72.065234 -17.820122 8.921341 -11.730491 -15.903203 30.094615 24.812831 1.874367 32.030750 18.242756 12.152020 -34.274844 57.880962 -45.599321 3.654751 14.851609 -14.868625 
-0.182309 0.926807 0.898255 61.508994 7.448575 97.681375 12.103878 0.412137 -48.489308 -11.758111 -1.732240 58.871691 5.883737 2.559112 -31.245797 0.000000 -0.000000 0.000000 -7.896243 -2.654040 -53.851821 4.556433 -4.154659 57.895074 12.356541 -0.160348 -12.401220 0.000000 -0.000000 0.000000 -2.597851 3.150479 52.956142 -4.722847 2.755435 -3.427119 -1.160731 0.407237 -2.148165 -14.651539 13.786877 -18.757018 -5.501029 8.635620 11.324737 -27.532067 -15.001313 -3.339682 -25.773190 -12.547458 11.264663 23.541016 -71.779257 -18.220944 9.537467 -11.487837 -16.126681 30.182747 22.674742 3.750152 32.533067 21.094906 11.955657 -35.436259 57.727346 -43.957480 2.415930 14.775597 -17.873875 
-0.179902 0.913089 0.894255 62.815448 7.224438 99.668597 13.398291 0.484583 -50.071617 -12.409277 -1.167654 58.525168 5.481123 1.722349 -31.346517 0.000000 -0.000000 0.000000 -9.149358 -0.487599 -57.043238 5.104744 -1.904741 51.916561 13.980609 1.385685 -9.971324 0.000000 -0.000000 0.000000 -3.145260 3.117499 50.500806 -4.251742 3.274453 -3.581705 -1.040033 0.411910 -1.499226 -14.381886 14.030528 -19.202511 -5.830375 7.578581 11.776638 -26.846795 -14.061191 -3.145811 -27.733521 -13.928401 11.746321 23.536640 -71.168984 -17.571942 10.815061 -11.742872 -16.388358 29.854835 21.511849 3.946193 33.451883 22.508196 12.306037 -36.213287 57.122589 -43.397731 1.559576 15.041151 -19.351338 
